<svg viewBox="0 0 24 24">
  <path
    d="M12 0C5.37 0 0 5.37 0 12c0 5.3 3.44 9.8 8.21 11.39.6.11.79-.26.79-.58v-2.23c-3.34.73-4.04-1.42-4.04-1.42-.55-1.39-1.34-1.76-1.34-1.76-1.09-.74.08-.73.08-.73 1.2.08 1.84 1.24 1.84 1.24 1.07 1.83 2.81 1.3 3.5 1 .1-.78.42-1.3.76-1.6-2.67-.3-5.47-1.33-5.47-5.93 0-1.3.47-2.38 1.24-3.22-.12-.3-.54-1.52.12-3.18 0 0 1.01-.32 3.3 1.23A11.5 11.5 0 0112 5.8c1.02 0 2.05.14 3 .4 2.3-1.55 3.3-1.23 3.3-1.23.66 1.66.23 2.87.12 3.18.77.84 1.23 1.91 1.23 3.22 0 4.61-2.8 5.63-5.48 5.92.43.37.82 1.1.82 2.22v3.3c0 .32.2.69.8.57C20.57 21.8 24 17.3 24 12 24 5.37 18.63 0 12 0z" />
</svg>